<svg width="100" height="100" viewBox="0 0 100 100" fill="none" xmlns="http://www.w3.org/2000/svg">
<path fill-rule="evenodd" clip-rule="evenodd" d="M46.4083 25.2471C46.4963 19.5451 46.5863 13.8441 46.6743 8.13711C56.9663 7.27011 66.4813 9.18011 74.9483 15.4351C74.8433 15.6461 74.7283 15.8771 74.6103 16.1071C72.6713 19.8751 70.7343 23.6441 68.7923 27.4091C68.6173 27.7451 68.3943 28.0631 69.0423 28.2761C71.2793 24.2131 73.5253 20.1341 75.8003 16.0091C85.1033 22.8911 89.8353 32.3811 91.8843 43.5061C89.0663 44.0921 86.2433 44.6791 83.4233 45.2661C83.3873 45.9111 83.7543 45.7631 84.0853 45.7011C86.4993 45.2451 88.9153 44.7911 91.3293 44.3401C91.5603 44.2971 91.7933 44.2721 92.1473 44.2211C92.3973 46.0191 92.6683 47.7491 92.8793 49.4881C93.4093 53.8751 92.9643 58.2501 92.6783 62.6281C92.4333 66.4041 92.3813 70.1821 93.1753 73.9111C93.3273 74.6291 93.6173 75.3341 93.9593 75.9871C94.1273 76.3121 94.5153 76.5881 94.8653 76.7481C95.5533 77.0621 95.7353 77.3931 95.4473 78.0841C94.8123 79.6001 92.4503 80.4081 91.0773 79.4771C90.1893 78.8731 89.3553 78.1431 88.6463 77.3361C83.9503 71.9991 80.1173 66.0941 77.3193 59.5491C76.7523 58.2151 76.5303 56.7351 76.1193 55.3301C74.9913 51.4771 73.4183 47.8261 71.1613 44.4851C69.2263 41.6221 66.9343 39.1051 64.0793 37.1321C59.8583 34.2131 55.1193 33.1771 50.0593 33.2761C47.5293 33.3251 45.0073 33.4111 42.5253 33.9651C39.1733 34.7151 36.2153 36.3221 33.4163 38.2281C31.0053 39.8681 28.6733 41.6211 26.3043 43.3211C25.9733 43.5581 25.6293 43.7791 25.2273 44.0511C22.8383 40.6571 19.7093 38.1341 16.1023 36.2041C12.5053 34.2801 8.66434 33.0871 4.44434 32.5801C8.29034 27.3511 13.2043 23.3111 18.1543 19.2051C21.0173 22.9561 23.8313 26.6441 26.6463 30.3321C26.6883 30.3051 26.7283 30.2781 26.7703 30.2511C24.3133 26.2691 21.8563 22.2871 19.3583 18.2381C23.4993 15.3161 27.3353 11.9671 32.2363 10.4081C36.1773 9.15511 40.2713 8.63911 44.3753 8.24311C44.5603 8.22411 44.7493 8.26111 44.9883 8.27511C45.4063 13.9391 45.8223 19.5771 46.2383 25.2141C46.2963 25.2271 46.3523 25.2371 46.4083 25.2471Z" fill="white"/>
<path fill-rule="evenodd" clip-rule="evenodd" d="M72.4679 55.667C72.1169 55.646 71.7759 55.544 71.4839 55.623C70.2989 55.944 69.1259 56.3 67.9589 56.682C67.3229 56.891 67.0169 57.448 67.1319 58.054C67.3259 59.059 67.4798 60.142 67.9788 61.002C69.4348 63.519 71.0439 65.952 72.6209 68.399C73.0359 69.045 73.5529 69.626 73.9939 70.202C73.4819 70.932 72.9699 71.626 72.4939 72.346C70.8949 74.781 68.5749 75.984 65.7339 76.017C63.8939 76.04 62.0049 75.92 60.2149 75.517C56.5799 74.697 53.0849 75.058 49.6099 76.193C45.2669 77.611 41.2768 79.761 37.5438 82.344C33.4218 85.196 29.4249 88.227 25.3729 91.18C24.7709 91.619 24.1669 92.054 23.4709 92.559C24.0499 90.929 24.6249 89.43 25.1159 87.905C27.2269 81.347 29.1149 74.724 30.6059 67.996C30.7509 67.338 31.1009 67.256 31.6409 67.2C34.8639 66.872 37.9589 66.119 40.6799 64.258C42.4969 63.014 43.8808 61.416 44.5308 59.263C44.5628 59.155 44.5739 59.039 44.6109 58.846C39.5129 59.122 34.4709 59.397 29.3709 59.673C29.1179 61.515 28.8749 63.324 28.6109 65.133C28.5739 65.379 28.4969 65.696 28.3219 65.836C25.9069 67.739 23.4719 69.618 21.0429 71.503C20.9609 71.439 20.8799 71.373 20.7979 71.307C21.3809 69.03 21.9079 66.738 22.5579 64.479C24.2379 58.642 26.4869 53.05 29.9279 48C32.6309 44.036 35.9289 40.714 40.2938 38.57C48.9479 34.318 63.2058 35.629 69.9328 48.567C71.1908 50.99 72.2839 54.022 72.4679 55.667Z" fill="white"/>
</svg>
